<svg version="1.1" xmlns="http://www.w3.org/2000/svg" style="display: block;" viewBox="0 0 2048 1169" width="1000" height="571">
<path transform="translate(0,0)" fill="rgb(255,255,255)" d="M 0 0 L 2048 0 L 2048 1169 L 0 1169 L 0 0 z"/>
<path transform="translate(0,0)" fill="rgb(2,81,153)" d="M 975.728 334.858 L 1105.4 334.677 C 1134.16 334.678 1163.58 333.695 1192.21 336.731 C 1254.42 343.325 1311.33 372.421 1355.53 416.25 C 1406.96 467.256 1433.36 537.835 1433.43 609.699 C 1433.49 685.876 1405.62 751.518 1351.69 805.389 C 1340.55 816.517 1328.16 826.124 1316.73 836.88 C 1353.95 845.288 1407.13 853.991 1441.73 832.341 C 1451.91 825.973 1459.16 816.847 1461.69 804.99 C 1466.7 781.489 1456.45 754.233 1446.38 733.426 C 1471.27 753.336 1495.5 781.569 1499.09 814.574 C 1500.99 832.067 1497.47 848.144 1486.25 862.031 C 1458.33 896.589 1405.66 909.623 1363.59 913.778 C 1340.93 915.936 1318.13 916.478 1295.39 915.398 C 1246.38 912.749 1197.23 905.272 1148.71 898.199 C 1111.22 892.735 1034.78 882.517 1001.93 867.257 L 999.38 865.561 C 997.369 864.207 995.873 863.469 993.473 863.064 C 992.003 861.405 990.468 860.413 990.527 858.117 L 994.834 855.024 L 996.291 852.359 L 997.807 847.339 C 997.84 842.369 998.439 836.664 996.685 831.958 C 996.807 829.943 996.474 827.11 997.75 825.563 C 1001.41 827.944 1002.7 832.415 1005.6 835.611 C 1010.45 840.952 1017.01 845.572 1022.64 850.121 L 1023.83 852.387 C 1032.01 852.897 1040.8 854.366 1047.44 848.401 C 1050.43 845.716 1053.17 841.875 1053.43 837.774 C 1053.78 832.382 1050.23 827.398 1046.65 823.731 C 1036.66 813.515 1021.05 806.989 1008.31 801.027 C 1033.58 793.898 1063.99 801.337 1089.74 803.895 C 1153.24 810.203 1213 804.961 1263.36 761.938 C 1280.75 747.193 1295.37 729.459 1306.52 709.573 C 1331.14 665.49 1336.03 604.976 1322.16 556.723 C 1308.53 509.966 1276.8 470.585 1234.01 447.319 C 1191.37 423.819 1146.54 424.533 1099.38 424.655 C 1077.8 424.711 1056.17 424.507 1034.59 424.943 C 1028.31 443.56 1015.19 464.608 1006.06 482.329 C 997.66 498.638 989.302 519.115 978.631 533.816 C 943.16 534.288 906.977 535.528 871.557 533.885 C 897.047 487.496 920.617 439.973 944.851 392.915 C 953.452 376.215 965.057 348.589 975.728 334.858 z"/>
<path transform="translate(0,0)" fill="rgb(2,81,153)" d="M 453.745 334.848 C 490.95 333.459 528.629 334.705 565.873 335.005 C 573.385 347.939 579.639 361.787 586.374 375.155 L 618.92 439.049 L 708.591 615.098 C 728.841 655.324 748.193 696.364 769.738 735.895 C 777.055 717.79 787.851 699.946 796.535 682.356 C 816.756 641.395 836.791 600.162 858.415 559.922 C 894.058 559.139 929.714 559.12 965.358 559.866 L 896.544 695.876 C 881.599 725.984 867.472 756.939 851.343 786.391 L 857.7 793.238 C 841.82 811.384 832.509 838.128 824.411 860.621 C 790.269 856.545 755.579 857.65 721.416 860.593 C 710.276 862.351 698.45 861.834 687.166 863.268 C 596.939 874.737 505.003 912.149 440.403 977.376 C 429.606 988.279 420.431 1000.37 411.041 1012.47 C 416.426 998.503 421.873 984.75 429.351 971.731 C 470.054 900.867 540.44 851.877 615.922 823.47 C 640.676 814.155 666.079 807.343 691.576 800.434 C 675.386 765.993 656.387 732.45 639.131 698.484 L 506.607 437.635 C 489.192 403.333 470.5 369.45 453.745 334.848 z"/>
<path transform="translate(0,0)" fill="rgb(249,166,31)" d="M 1535.57 848.058 C 1536.82 884.568 1529.45 916.79 1503.94 944.171 C 1463.41 987.673 1396.13 1001.96 1338.96 1003.9 C 1262.8 1006.48 1186.2 992.489 1111.75 978.181 C 1077.88 971.671 1039.09 964.783 1006.53 953.638 C 1002.84 949.471 999.17 945.278 995.534 941.059 C 994.854 939.677 994.757 938.829 994.764 937.296 C 998.075 935.331 1003.3 936.184 1007.3 935.633 C 1008.07 934.764 1008.82 933.881 1009.46 932.908 C 1014.76 924.841 1007.18 921.56 1005.19 911.905 C 1005.5 911.701 1005.79 911.478 1006.11 911.294 C 1008.62 909.84 1010.14 910.84 1012.67 911.637 C 1021.18 917.633 1190.18 941.75 1208.25 944.018 C 1235.78 947.472 1263.3 950.694 1291.03 952.038 C 1327.76 953.819 1365.26 953.897 1401.57 947.622 C 1446.01 939.941 1492.67 922.421 1519.52 884.205 C 1527.11 873.397 1530.91 860.307 1535.57 848.058 z"/>
<path transform="translate(0,0)" fill="rgb(235,173,62)" d="M 1061.01 533.735 C 1060.69 526.841 1061.55 519.173 1066.42 513.888 C 1067.54 512.676 1069.33 511.388 1071.05 511.38 C 1074.79 511.364 1077.45 513.491 1079.91 516.063 C 1092.77 529.507 1094.18 554.965 1117.73 555.758 C 1128.43 556.119 1137.33 548.102 1144.56 541.102 C 1170.43 516.042 1183.91 493.615 1217.2 473.859 C 1220.99 471.616 1225.64 468.176 1230.09 467.774 L 1231.4 468.633 C 1228.04 475.014 1194.37 498.197 1186.11 505.361 C 1166.9 522.02 1151.55 553.354 1126.24 560.986 C 1118.77 563.237 1111.19 562.483 1104.35 558.743 C 1087.67 549.624 1082.31 522.624 1071.8 519.672 C 1069.82 520.812 1069.56 521.727 1069.02 523.987 C 1066.47 534.598 1074.34 546.409 1079.99 554.801 C 1088.77 565.087 1096.18 571.205 1108.76 576.376 C 1114.38 572.375 1119.68 569.013 1126.14 566.466 C 1116.86 578.106 1101.84 588.22 1094.29 600.399 C 1094.54 600.454 1094.8 600.515 1095.06 600.564 C 1108.44 603.094 1108.5 595.601 1119.83 608.534 C 1120.46 608.196 1121.07 607.841 1121.7 607.499 C 1134.36 600.593 1145.39 589.901 1157.36 581.729 C 1173.5 570.04 1192.35 552.383 1213.33 552.717 L 1215.2 553.611 C 1214.61 555.477 1213.12 556.169 1211.4 557.025 C 1196.53 564.444 1187.47 563.102 1177.7 579.082 C 1174.76 583.895 1172.09 590.441 1168.61 594.698 C 1164.23 603.618 1159.95 626.79 1153.47 632.046 C 1148.26 636.31 1141.31 637.514 1135.95 641.522 C 1128.53 647.071 1122.01 654.176 1114.91 660.169 C 1102.5 670.64 1083.19 678.32 1067.62 682.27 C 1067.4 682.369 1067.18 682.471 1066.95 682.567 C 1051.88 688.947 1025.76 688.505 1018.37 706.323 C 1017.97 707.3 1018.26 708.576 1018.33 709.629 C 1019.79 712.072 1021.31 712.641 1023.83 713.702 L 1028.39 714.735 C 1025.2 715.526 1021.47 714.852 1018.24 714.446 C 1021.93 718.368 1024.4 718.76 1029.46 720.239 C 1021.62 720.445 1019.4 718.732 1013.2 714.447 C 1009.94 719.958 1006.16 727.794 1000.75 731.423 L 999.082 731.076 C 999.181 729.371 1004.44 724.895 1005.84 723.225 L 1005.49 721.664 L 1004.39 721.687 L 1005.36 721.58 C 1002.45 722.95 1001.45 726.433 998.615 728.417 L 996.453 727.843 C 1002.21 721.914 1005.43 716.278 1008.59 708.757 C 1007.14 705.837 1005.83 703.207 1002.44 702.21 C 991.486 699.001 947.979 727.942 936.805 734.909 C 917.199 747.133 903.261 764.997 888.062 782.023 C 888.194 779.428 887.679 778.14 886.325 775.946 C 893.734 767.036 901.438 758.144 909.169 749.516 C 920.333 737.059 984.867 694.548 1000.26 694.49 C 1005.64 694.47 1009.08 697.97 1012.74 701.388 C 1029.27 683.324 1049.39 681.367 1071.9 675.187 C 1072.95 674.887 1074.01 674.596 1075.04 674.221 C 1077.31 673.393 1077.95 673.345 1078.94 671.124 C 1076.61 667.355 1068.74 664.498 1064.8 661.751 C 1057.65 658.118 1050.8 652.744 1044.11 648.279 C 1039.94 645.864 1035.07 642.432 1031.78 638.936 C 1026.87 634.651 1023.09 629.421 1019.47 624.037 C 1012.53 613.693 1002.98 599.612 1005.51 586.749 C 1006.57 585.28 1007.64 583.743 1008.9 582.444 C 1011.19 580.127 1014.33 578.86 1017.59 578.94 C 1025.49 579.149 1032.93 586.173 1038.15 591.384 C 1036.79 576.769 1032.98 559.355 1036.96 544.982 C 1038.19 540.559 1040.5 536.501 1044.75 534.353 C 1050.15 531.622 1054.53 533.663 1059.89 535.365 L 1061.01 533.735 z"/>
<path transform="translate(0,0)" fill="rgb(255,255,255)" d="M 1160.22 586.491 L 1164.84 584.291 L 1166.44 584.895 C 1166.01 587.274 1165.2 589.028 1164.03 591.135 C 1158.85 602.761 1156.36 615.928 1150.79 627.151 L 1150.36 627.386 C 1143.87 630.858 1136.94 633.075 1130.9 637.408 C 1116.09 648.031 1108.47 661.755 1089.38 666.289 C 1079.79 663.384 1071.43 659.747 1062.87 654.525 C 1058.48 651.099 1053.67 648.235 1048.97 645.269 C 1043.34 640.849 1037.81 637.043 1032.55 632.11 C 1023.15 621.068 1016.44 607.207 1010.48 594.104 C 1011.08 590.834 1011.44 588.487 1013.82 585.96 C 1016.88 584.991 1018.64 585.221 1021.54 586.764 C 1033.17 592.962 1038.21 607.296 1047.88 615.767 C 1050.2 617.788 1052.78 619.485 1055.56 620.812 C 1061.28 623.564 1067.53 624.64 1073.41 626.933 C 1080.59 629.733 1087.28 634.186 1094.81 636.033 C 1098.25 636.877 1101.97 637.064 1105.41 636.14 C 1110.17 634.867 1113.16 631.678 1115.49 627.538 C 1117.6 623.765 1118.45 620.077 1119.11 615.839 C 1130.04 613.925 1151.69 594.366 1160.22 586.491 z"/>
<path transform="translate(0,0)" fill="rgb(255,255,255)" d="M 1079.59 618.872 L 1078.63 620.184 C 1075.86 621.167 1073.3 620.488 1070.66 619.387 C 1059.28 614.634 1051.11 603.797 1046.79 592.564 C 1041.54 578.887 1039.13 554.903 1045.33 541.18 C 1046.9 539.873 1047.33 539.082 1049.49 539.388 C 1053.13 539.902 1056.06 543.956 1058.25 546.606 C 1057.14 554.667 1061.1 569.233 1065.13 576.236 C 1070.34 586.464 1076.6 592.994 1085.78 599.818 C 1083.75 605.964 1080.88 612.589 1079.59 618.872 z"/>
<path transform="translate(0,0)" fill="rgb(255,255,255)" d="M 1063.63 540.198 C 1066.8 545.296 1070.23 552.119 1074.44 556.3 C 1081.95 566.938 1092.53 574.359 1103.15 581.622 C 1099.34 586.343 1095.68 591.208 1089.97 593.668 C 1089.03 593.415 1088 593.228 1087.12 592.821 C 1075.49 583.57 1069.66 575.516 1066.78 561.096 C 1066.88 554.158 1061.46 547.184 1063.63 540.198 z"/>
<path transform="translate(0,0)" fill="rgb(249,166,31)" d="M 1061.01 533.735 C 1062.09 535.704 1063.69 537.895 1063.63 540.198 C 1061.46 547.184 1066.88 554.158 1066.78 561.096 C 1064.18 565.142 1064.93 571.606 1065.13 576.236 C 1061.1 569.233 1057.14 554.667 1058.25 546.606 L 1059.49 546.687 L 1060.68 545.092 C 1061.12 541.558 1060.62 538.803 1059.89 535.365 L 1061.01 533.735 z"/>
<path transform="translate(0,0)" fill="rgb(249,166,31)" d="M 1164.03 591.135 L 1164.38 597.59 C 1166.07 596.984 1167.12 595.623 1168.61 594.698 C 1164.23 603.618 1159.95 626.79 1153.47 632.046 C 1154.04 629.328 1155.62 626.336 1156.55 623.672 C 1157.67 620.502 1159.19 616.522 1157.67 613.318 C 1156.71 617.822 1154.98 624.769 1151.75 628.097 L 1150.79 627.151 C 1156.36 615.928 1158.85 602.761 1164.03 591.135 z"/>
<path transform="translate(0,0)" fill="rgb(255,255,255)" d="M 1093.53 609.162 C 1096.7 606.963 1099.38 604.916 1103.48 605.52 C 1106.09 605.906 1108.21 607.241 1109.72 609.406 C 1111.87 612.503 1112.45 616.604 1111.61 620.251 C 1110.86 623.459 1109.02 626.617 1106.15 628.336 C 1103.4 629.984 1099.96 630.066 1096.94 629.167 C 1093.19 628.049 1089.86 624.915 1087.01 622.339 C 1089.04 617.882 1091.32 613.531 1093.53 609.162 z"/>
<path transform="translate(0,0)" fill="rgb(249,166,31)" d="M 571.164 925.316 C 580.071 917.978 598.872 911.325 609.969 907.305 C 662.459 888.29 716.343 885.58 771.6 887.74 C 785.904 888.299 800.321 890.668 814.61 890.474 L 815.763 890.453 C 817.89 891.159 819.353 891.583 820.852 893.299 C 814.813 904.488 809.001 915.907 802.551 926.858 L 797.395 922.891 C 787.017 918.69 773.172 919.204 762.018 918.657 C 700.872 915.656 639.136 918.881 579.237 931.944 C 565.582 935.404 552.114 939.911 538.836 944.588 C 547.37 935.88 560.054 930.063 571.164 925.316 z"/>
<path transform="translate(0,0)" fill="rgb(235,173,62)" d="M 538.836 944.588 C 547.37 935.88 560.054 930.063 571.164 925.316 C 568.959 927.691 566.668 929.812 564.213 931.924 L 564.333 932.503 C 569.274 932.042 574.288 931.333 579.237 931.944 C 565.582 935.404 552.114 939.911 538.836 944.588 z"/>
<path transform="translate(0,0)" fill="rgb(255,255,255)" d="M 979.044 860.36 C 981.791 862.663 984.643 864.799 988.427 864.42 C 990.062 864.256 992.143 864.052 993.473 863.064 C 995.873 863.469 997.369 864.207 999.38 865.561 L 1001.93 867.257 C 1001.31 871.823 1007.7 886.02 1009.13 891.88 C 1010.72 898.378 1010.79 905.3 1012.67 911.637 C 1010.14 910.84 1008.62 909.84 1006.11 911.294 C 1005.79 911.478 1005.5 911.701 1005.19 911.905 C 1007.18 921.56 1014.76 924.841 1009.46 932.908 C 1008.82 933.881 1008.07 934.764 1007.3 935.633 C 1003.3 936.184 998.075 935.331 994.764 937.296 C 994.757 938.829 994.854 939.677 995.534 941.059 C 995.479 941.314 995.421 941.568 995.368 941.824 C 993.878 949.046 995.32 960.489 988.483 965.309 C 985.904 967.127 982.414 967.274 979.445 966.518 C 970.234 964.17 963.388 955.033 955.907 949.634 C 952.539 947.203 948.437 945.391 944.719 943.54 C 933.904 942.08 925.939 937.142 914.483 937.795 C 913.005 938.065 911.508 938.254 910.021 938.472 L 908.317 936.852 C 914.348 929.177 918.893 921.402 923.325 912.75 C 925.999 905.238 934.501 897.937 939.861 892.225 C 949.61 879.661 965.381 868.265 979.044 860.36 z"/>
<path transform="translate(0,0)" fill="rgb(255,255,255)" d="M 939.861 892.225 L 942.949 892.961 C 943.472 894.032 943.967 894.971 944.248 896.139 L 944.968 898.26 L 951.87 900.983 C 952.169 903.094 952.897 905.665 951.977 907.658 C 960.351 913.267 967.319 919.726 973.974 927.283 C 975.526 925.062 975.771 924.88 978.314 923.941 C 982.314 927.693 986.208 931.422 990.751 934.527 C 996.156 934.806 1001.99 934.661 1007.3 935.633 C 1003.3 936.184 998.075 935.331 994.764 937.296 C 994.757 938.829 994.854 939.677 995.534 941.059 C 995.479 941.314 995.421 941.568 995.368 941.824 C 993.878 949.046 995.32 960.489 988.483 965.309 C 985.904 967.127 982.414 967.274 979.445 966.518 C 970.234 964.17 963.388 955.033 955.907 949.634 C 952.539 947.203 948.437 945.391 944.719 943.54 C 933.904 942.08 925.939 937.142 914.483 937.795 C 913.005 938.065 911.508 938.254 910.021 938.472 L 908.317 936.852 C 914.348 929.177 918.893 921.402 923.325 912.75 C 925.999 905.238 934.501 897.937 939.861 892.225 z"/>
<path transform="translate(0,0)" fill="rgb(249,166,31)" d="M 923.325 912.75 C 925.6 915.374 925.672 916.189 926.102 919.494 C 932.827 925.238 940.323 929.857 947.07 935.438 L 947.084 937.399 C 957.231 944.756 966.747 950.492 972.965 961.66 C 966.759 954.44 956.453 944.371 946.343 943.593 C 945.803 943.551 945.261 943.545 944.719 943.54 C 933.904 942.08 925.939 937.142 914.483 937.795 C 913.005 938.065 911.508 938.254 910.021 938.472 L 908.317 936.852 C 914.348 929.177 918.893 921.402 923.325 912.75 z"/>
<path transform="translate(0,0)" fill="rgb(235,173,62)" d="M 973.974 927.283 C 975.526 925.062 975.771 924.88 978.314 923.941 C 982.314 927.693 986.208 931.422 990.751 934.527 C 996.156 934.806 1001.99 934.661 1007.3 935.633 C 1003.3 936.184 998.075 935.331 994.764 937.296 C 994.757 938.829 994.854 939.677 995.534 941.059 C 995.479 941.314 995.421 941.568 995.368 941.824 C 993.878 949.046 995.32 960.489 988.483 965.309 C 985.904 967.127 982.414 967.274 979.445 966.518 C 970.234 964.17 963.388 955.033 955.907 949.634 C 952.539 947.203 948.437 945.391 944.719 943.54 C 945.261 943.545 945.803 943.551 946.343 943.593 C 956.453 944.371 966.759 954.44 972.965 961.66 C 966.747 950.492 957.231 944.756 947.084 937.399 L 947.07 935.438 C 960.437 939.082 966.877 956.205 979.593 960.122 C 981.314 959.913 982.43 959.998 983.847 958.926 C 985.863 957.4 987.916 954.251 988.063 951.679 C 988.525 943.589 978.602 933.223 973.974 927.283 z"/>
<path transform="translate(0,0)" fill="rgb(235,173,62)" d="M 939.861 892.225 L 942.949 892.961 C 943.472 894.032 943.967 894.971 944.248 896.139 L 944.968 898.26 L 951.87 900.983 C 952.169 903.094 952.897 905.665 951.977 907.658 C 947.36 905.537 942.418 902.799 937.223 904.578 C 931.538 906.524 929.025 912.516 926.846 917.603 C 926.579 918.228 926.328 918.854 926.102 919.494 C 925.672 916.189 925.6 915.374 923.325 912.75 C 925.999 905.238 934.501 897.937 939.861 892.225 z"/>
<path transform="translate(0,0)" fill="rgb(249,166,31)" d="M 979.044 860.36 C 981.791 862.663 984.643 864.799 988.427 864.42 C 990.062 864.256 992.143 864.052 993.473 863.064 C 995.873 863.469 997.369 864.207 999.38 865.561 L 1001.93 867.257 C 1001.31 871.823 1007.7 886.02 1009.13 891.88 C 1010.72 898.378 1010.79 905.3 1012.67 911.637 C 1010.14 910.84 1008.62 909.84 1006.11 911.294 C 1005.79 911.478 1005.5 911.701 1005.19 911.905 C 1001.69 894.227 1002.86 881.199 988.578 867.577 C 982.779 866.42 973.069 870.08 968.182 873.248 L 966.694 875.553 C 968.697 880.551 974.971 881.86 978.371 885.91 C 983.4 891.9 992.655 912.768 991.38 920.634 L 990.064 921.849 C 985.914 920.16 984.602 917.276 982.928 913.257 C 978.364 902.298 977.982 889.88 965.471 884.675 C 964.163 884.137 962.84 883.634 961.504 883.168 C 954.658 886.518 949.611 890.807 944.248 896.139 C 943.967 894.971 943.472 894.032 942.949 892.961 L 939.861 892.225 C 949.61 879.661 965.381 868.265 979.044 860.36 z"/>
<path transform="translate(0,0)" fill="rgb(249,166,31)" d="M 951.87 900.983 C 962.501 907.191 971.085 913.821 978.314 923.941 C 975.771 924.88 975.526 925.062 973.974 927.283 C 967.319 919.726 960.351 913.267 951.977 907.658 C 952.897 905.665 952.169 903.094 951.87 900.983 z"/>
<path transform="translate(0,0)" fill="rgb(235,173,62)" d="M 921.075 790.737 C 923.86 790.052 925.149 789.503 927.963 790.348 C 925.704 793.509 923.281 796.639 921.218 799.928 L 919.545 800.973 L 919.52 802.515 L 920.993 803.349 L 924.299 802.043 C 923.859 803.691 923.057 804.705 922.039 806.023 L 923.733 806.436 C 926.396 804.5 931.982 799.22 935.041 799.223 L 935.122 800.385 C 923.105 809.438 912.321 818.377 910.178 834.089 C 909.115 841.887 909.237 849.842 908.115 857.624 C 921.882 850.032 935.391 839.461 947.504 829.453 C 955.381 822.946 962.99 815.111 972.202 810.532 C 977.042 808.126 981.785 806.763 987.106 808.322 C 998.423 811.638 1015.04 831.555 1020.63 842.053 C 1022 844.632 1022.38 847.242 1022.64 850.121 C 1017.01 845.572 1010.45 840.952 1005.6 835.611 C 1002.7 832.415 1001.41 827.944 997.75 825.563 C 996.474 827.11 996.807 829.943 996.685 831.958 C 998.439 836.664 997.84 842.369 997.807 847.339 L 996.291 852.359 L 994.834 855.024 L 990.527 858.117 C 990.468 860.413 992.003 861.405 993.473 863.064 C 992.143 864.052 990.062 864.256 988.427 864.42 C 984.643 864.799 981.791 862.663 979.044 860.36 L 975.4 859.394 C 972.627 857.455 969.926 856.379 967.681 853.714 C 962.918 848.062 962.723 842.078 963.253 834.984 C 964.25 830.886 965.815 827.574 967.83 823.88 L 966.413 822.359 C 935.882 843.435 901.163 881.519 863.082 885.517 C 873.839 875.921 888.972 871.979 900.428 862.587 C 905.843 837.99 903.227 811.237 921.075 790.737 z"/>
<path transform="translate(0,0)" fill="rgb(255,255,255)" d="M 966.413 822.359 C 970.724 818.536 975.559 813.6 981.833 814.13 C 985.313 814.424 988.305 817.21 990.342 819.872 C 993.21 823.619 994.217 828.093 996.685 831.958 C 998.439 836.664 997.84 842.369 997.807 847.339 L 996.291 852.359 L 994.834 855.024 L 990.527 858.117 C 990.468 860.413 992.003 861.405 993.473 863.064 C 992.143 864.052 990.062 864.256 988.427 864.42 C 984.643 864.799 981.791 862.663 979.044 860.36 L 975.4 859.394 C 972.627 857.455 969.926 856.379 967.681 853.714 C 962.918 848.062 962.723 842.078 963.253 834.984 C 964.25 830.886 965.815 827.574 967.83 823.88 L 966.413 822.359 z"/>
<path transform="translate(0,0)" fill="rgb(249,166,31)" d="M 966.413 822.359 C 970.724 818.536 975.559 813.6 981.833 814.13 C 985.313 814.424 988.305 817.21 990.342 819.872 C 993.21 823.619 994.217 828.093 996.685 831.958 C 998.439 836.664 997.84 842.369 997.807 847.339 L 996.291 852.359 L 994.834 855.024 C 991.743 853.349 987.582 852.643 984.164 851.766 C 986.865 847.123 987.758 840.703 986.392 835.494 C 985.363 831.572 983.412 828.379 979.854 826.298 C 978.054 826.08 976.937 825.706 975.236 826.462 C 971.034 828.33 969.466 833.195 967.789 837.141 C 966.469 835.95 964.901 835.544 963.253 834.984 C 964.25 830.886 965.815 827.574 967.83 823.88 L 966.413 822.359 z"/>
<path transform="translate(0,0)" fill="rgb(249,231,212)" d="M 966.413 822.359 C 970.724 818.536 975.559 813.6 981.833 814.13 C 985.313 814.424 988.305 817.21 990.342 819.872 C 993.21 823.619 994.217 828.093 996.685 831.958 C 998.439 836.664 997.84 842.369 997.807 847.339 L 996.291 852.359 C 994.608 851.558 994.16 850.908 993.178 849.404 C 993.98 840.799 992.707 829.608 987.071 822.671 C 985.34 820.54 982.943 818.704 980.091 818.583 C 975.232 818.378 971.208 820.662 967.83 823.88 L 966.413 822.359 z"/>
<path transform="translate(0,0)" fill="rgb(235,173,62)" d="M 963.253 834.984 C 964.901 835.544 966.469 835.95 967.789 837.141 C 968.598 841.564 969.027 847.075 972.892 850.012 C 975.702 852.146 979.559 852.234 982.934 852.243 L 984.164 851.766 C 987.582 852.643 991.743 853.349 994.834 855.024 L 990.527 858.117 C 990.468 860.413 992.003 861.405 993.473 863.064 C 992.143 864.052 990.062 864.256 988.427 864.42 C 984.643 864.799 981.791 862.663 979.044 860.36 L 975.4 859.394 C 972.627 857.455 969.926 856.379 967.681 853.714 C 962.918 848.062 962.723 842.078 963.253 834.984 z"/>
<path transform="translate(0,0)" fill="rgb(249,166,31)" d="M 1210.27 627.7 L 1212.11 628.141 C 1213.95 625.729 1215.64 623.357 1218.02 621.439 L 1218.98 621.998 C 1217.58 623.853 1215.39 625.839 1215.3 628.164 L 1216.58 628.412 C 1211.11 636.627 1205.51 644.186 1198.06 650.743 C 1187.2 660.306 1173.95 667.018 1161.69 674.591 C 1136.44 690.192 1114.54 707.297 1084.68 713.249 C 1066.68 716.837 1047.74 718.481 1029.46 720.239 C 1024.4 718.76 1021.93 718.368 1018.24 714.446 C 1021.47 714.852 1025.2 715.526 1028.39 714.735 L 1023.83 713.702 L 1024.5 713.68 C 1052.12 712.715 1085.55 710.461 1110.66 698.441 C 1124.95 691.605 1137.88 682.42 1151.24 674.011 C 1165.06 665.307 1182.47 657.442 1194.39 646.337 C 1200.13 640.999 1204.41 633.926 1209.8 628.193 L 1210.27 627.7 z"/>
<path transform="translate(0,0)" fill="rgb(249,166,31)" d="M 851.369 820.724 C 856.843 802.27 873.059 788.943 886.325 775.946 C 887.679 778.14 888.194 779.428 888.062 782.023 C 875.051 796.409 862.845 807.128 854.851 825.24 C 847.738 840.712 830.739 882.451 820.852 893.299 C 819.353 891.583 817.89 891.159 815.763 890.453 C 820.73 881.013 826.352 871.968 831.174 862.413 C 838.131 848.625 844.2 834.405 851.369 820.724 z"/>
<path transform="translate(0,0)" fill="rgb(249,166,31)" d="M 797.395 922.891 L 802.551 926.858 C 796.204 938.139 788.866 948.512 781.178 958.904 C 773.66 970.206 755.583 993.979 744.706 1001.15 C 739.304 1006.64 734 1013.2 726.758 1016.22 L 725.465 1015.66 C 726.394 1008.35 736.716 1000.96 741.847 996.269 C 755.134 981.075 768.289 966.18 780.55 950.11 C 786.581 941.21 792.814 932.66 797.395 922.891 z"/>
<path transform="translate(0,0)" fill="rgb(249,166,31)" d="M 996.453 727.843 L 998.615 728.417 C 1001.45 726.433 1002.45 722.95 1005.36 721.58 L 1004.39 721.687 L 1005.49 721.664 L 1005.84 723.225 C 1004.44 724.895 999.181 729.371 999.082 731.076 L 1000.75 731.423 C 988.437 745.976 970.134 753.666 954.823 764.488 C 947.059 769.975 941.665 775.736 935.008 782.326 C 932.965 784.804 930.553 788.516 927.963 790.348 C 925.149 789.503 923.86 790.052 921.075 790.737 C 923.894 786.134 928.021 782.033 931.551 777.952 C 939.062 762.948 981.197 740.655 996.453 727.843 z"/>
<path transform="translate(0,0)" fill="rgb(249,166,31)" d="M 908.317 936.852 L 910.021 938.472 C 911.508 938.254 913.005 938.065 914.483 937.795 C 905.009 947.562 898.095 959.737 888.452 969.588 C 878.807 979.44 868.89 985.412 859.444 993.983 C 854.667 998.317 850.56 1004.07 846.381 1009 C 844.096 1011.69 841.264 1015.67 837.591 1015.97 C 837.715 1012.55 840 1010.07 841.795 1007.19 C 855.161 985.783 868.069 982.473 884.059 965.947 C 892.803 956.911 899.931 946.241 908.317 936.852 z"/>
<path transform="translate(0,0)" fill="rgb(249,166,31)" d="M 921.218 799.928 C 933.027 801.35 963.522 761.376 1005.87 798.31 C 975.259 790.834 965.544 784.26 935.122 800.385 L 935.041 799.223 C 931.982 799.22 926.396 804.5 923.733 806.436 L 922.039 806.023 C 923.057 804.705 923.859 803.691 924.299 802.043 L 920.993 803.349 L 919.52 802.515 L 919.545 800.973 L 921.218 799.928 z"/>
<path transform="translate(0,0)" fill="rgb(235,173,62)" d="M 1250.46 573.252 C 1251.25 575.92 1250.3 577.523 1249.49 580.085 C 1251.61 577.731 1253.73 575.402 1255.66 572.879 L 1257.56 573.267 C 1250.39 584.999 1225.66 619.087 1216.58 628.412 L 1215.3 628.164 C 1215.39 625.839 1217.58 623.853 1218.98 621.998 L 1218.02 621.439 C 1215.64 623.357 1213.95 625.729 1212.11 628.141 L 1210.27 627.7 C 1214.8 619.958 1221.13 612.607 1226.45 605.364 C 1234.32 594.662 1241.88 583.391 1250.46 573.252 z"/>
<path transform="translate(0,0)" fill="rgb(249,166,31)" d="M 1250.46 573.252 C 1255.07 566.16 1275.29 536.437 1281.18 533.247 L 1282.34 534.492 C 1281.85 543.366 1265.21 565.563 1258.71 572.371 C 1258.26 572.847 1258.06 572.946 1257.56 573.267 L 1255.66 572.879 C 1253.73 575.402 1251.61 577.731 1249.49 580.085 C 1250.3 577.523 1251.25 575.92 1250.46 573.252 z"/>
</svg>